# Blender v3.5.1 OBJ File: ''
# www.blender.org
o head.002_Mesh_4
v 0.156250 0.812500 -1.187500
v 0.156250 0.812500 -1.375000
v 0.156250 0.625000 -1.187500
v 0.156250 0.625000 -1.375000
v -0.156250 0.812500 -1.375000
v -0.156250 0.812500 -1.187500
v -0.156250 0.625000 -1.375000
v -0.156250 0.625000 -1.187500
v -0.156250 0.812500 -1.375000
v 0.156250 0.812500 -1.375000
v -0.156250 0.812500 -1.187500
v 0.156250 0.812500 -1.187500
v -0.156250 0.625000 -1.187500
v 0.156250 0.625000 -1.187500
v -0.156250 0.625000 -1.375000
v 0.156250 0.625000 -1.375000
v -0.156250 0.812500 -1.187500
v 0.156250 0.812500 -1.187500
v -0.156250 0.625000 -1.187500
v 0.156250 0.625000 -1.187500
v 0.156250 0.812500 -1.375000
v -0.156250 0.812500 -1.375000
v 0.156250 0.625000 -1.375000
v -0.156250 0.625000 -1.375000
v 0.437500 1.187500 -0.062500
v 0.437500 0.500000 -0.062500
v 0.437500 1.187500 0.812500
v 0.437500 0.500000 0.812500
v -0.437500 0.500000 -0.062500
v -0.437500 1.187500 -0.062500
v -0.437500 0.500000 0.812500
v -0.437500 1.187500 0.812500
v -0.437500 0.500000 -0.062500
v 0.437500 0.500000 -0.062500
v -0.437500 1.187500 -0.062500
v 0.437500 1.187500 -0.062500
v -0.437500 1.187500 0.812500
v 0.437500 1.187500 0.812500
v -0.437500 0.500000 0.812500
v 0.437500 0.500000 0.812500
v -0.437500 1.187500 -0.062500
v 0.437500 1.187500 -0.062500
v -0.437500 1.187500 0.812500
v 0.437500 1.187500 0.812500
v 0.437500 0.500000 -0.062500
v -0.437500 0.500000 -0.062500
v 0.437500 0.500000 0.812500
v -0.437500 0.500000 0.812500
v 0.375000 1.125000 -0.812500
v 0.375000 0.500000 -0.812500
v 0.375000 1.125000 -0.062500
v 0.375000 0.500000 -0.062500
v -0.375000 0.500000 -0.812500
v -0.375000 1.125000 -0.812500
v -0.375000 0.500000 -0.062500
v -0.375000 1.125000 -0.062500
v -0.375000 0.500000 -0.812500
v 0.375000 0.500000 -0.812500
v -0.375000 1.125000 -0.812500
v 0.375000 1.125000 -0.812500
v -0.375000 1.125000 -0.062500
v 0.375000 1.125000 -0.062500
v -0.375000 0.500000 -0.062500
v 0.375000 0.500000 -0.062500
v -0.375000 1.125000 -0.812500
v 0.375000 1.125000 -0.812500
v -0.375000 1.125000 -0.062500
v 0.375000 1.125000 -0.062500
v 0.375000 0.500000 -0.812500
v -0.375000 0.500000 -0.812500
v 0.375000 0.500000 -0.062500
v -0.375000 0.500000 -0.062500
v 0.218750 1.062500 -0.750000
v 0.218750 1.062500 -1.187500
v 0.218750 0.625000 -0.750000
v 0.218750 0.625000 -1.187500
v -0.218750 1.062500 -1.187500
v -0.218750 1.062500 -0.750000
v -0.218750 0.625000 -1.187500
v -0.218750 0.625000 -0.750000
v -0.218750 1.062500 -1.187500
v 0.218750 1.062500 -1.187500
v -0.218750 1.062500 -0.750000
v 0.218750 1.062500 -0.750000
v -0.218750 0.625000 -0.750000
v 0.218750 0.625000 -0.750000
v -0.218750 0.625000 -1.187500
v 0.218750 0.625000 -1.187500
v -0.218750 1.062500 -0.750000
v 0.218750 1.062500 -0.750000
v -0.218750 0.625000 -0.750000
v 0.218750 0.625000 -0.750000
v 0.218750 1.062500 -1.187500
v -0.218750 1.062500 -1.187500
v 0.218750 0.625000 -1.187500
v -0.218750 0.625000 -1.187500
v 0.281250 1.125000 -1.000000
v 0.281250 1.125000 -1.062500
v 0.281250 1.000000 -1.000000
v 0.281250 1.000000 -1.062500
v 0.156250 1.125000 -1.062500
v 0.156250 1.125000 -1.000000
v 0.156250 1.000000 -1.062500
v 0.156250 1.000000 -1.000000
v 0.156250 1.125000 -1.062500
v 0.281250 1.125000 -1.062500
v 0.156250 1.125000 -1.000000
v 0.281250 1.125000 -1.000000
v 0.156250 1.000000 -1.000000
v 0.281250 1.000000 -1.000000
v 0.156250 1.000000 -1.062500
v 0.281250 1.000000 -1.062500
v 0.156250 1.125000 -1.000000
v 0.281250 1.125000 -1.000000
v 0.156250 1.000000 -1.000000
v 0.281250 1.000000 -1.000000
v 0.281250 1.125000 -1.062500
v 0.156250 1.125000 -1.062500
v 0.281250 1.000000 -1.062500
v 0.156250 1.000000 -1.062500
v -0.156250 1.125000 -1.000000
v -0.156250 1.125000 -1.062500
v -0.156250 1.000000 -1.000000
v -0.156250 1.000000 -1.062500
v -0.281250 1.125000 -1.062500
v -0.281250 1.125000 -1.000000
v -0.281250 1.000000 -1.062500
v -0.281250 1.000000 -1.000000
v -0.281250 1.125000 -1.062500
v -0.156250 1.125000 -1.062500
v -0.281250 1.125000 -1.000000
v -0.156250 1.125000 -1.000000
v -0.281250 1.000000 -1.000000
v -0.156250 1.000000 -1.000000
v -0.281250 1.000000 -1.062500
v -0.156250 1.000000 -1.062500
v -0.281250 1.125000 -1.000000
v -0.156250 1.125000 -1.000000
v -0.281250 1.000000 -1.000000
v -0.156250 1.000000 -1.000000
v -0.156250 1.125000 -1.062500
v -0.281250 1.125000 -1.062500
v -0.156250 1.000000 -1.062500
v -0.281250 1.000000 -1.062500
v 0.406250 0.625000 0.750000
v 0.406250 0.625000 0.250000
v 0.406250 0.000000 0.750000
v 0.406250 0.000000 0.250000
v 0.156250 0.625000 0.250000
v 0.156250 0.625000 0.750000
v 0.156250 0.000000 0.250000
v 0.156250 0.000000 0.750000
v 0.156250 0.625000 0.250000
v 0.406250 0.625000 0.250000
v 0.156250 0.625000 0.750000
v 0.406250 0.625000 0.750000
v 0.156250 0.000000 0.750000
v 0.406250 0.000000 0.750000
v 0.156250 0.000000 0.250000
v 0.406250 0.000000 0.250000
v 0.156250 0.625000 0.750000
v 0.406250 0.625000 0.750000
v 0.156250 0.000000 0.750000
v 0.406250 0.000000 0.750000
v 0.406250 0.625000 0.250000
v 0.156250 0.625000 0.250000
v 0.406250 0.000000 0.250000
v 0.156250 0.000000 0.250000
v -0.156250 0.625000 0.750000
v -0.156250 0.625000 0.250000
v -0.156250 0.000000 0.750000
v -0.156250 0.000000 0.250000
v -0.406250 0.625000 0.250000
v -0.406250 0.625000 0.750000
v -0.406250 0.000000 0.250000
v -0.406250 0.000000 0.750000
v -0.406250 0.625000 0.250000
v -0.156250 0.625000 0.250000
v -0.406250 0.625000 0.750000
v -0.156250 0.625000 0.750000
v -0.406250 0.000000 0.750000
v -0.156250 0.000000 0.750000
v -0.406250 0.000000 0.250000
v -0.156250 0.000000 0.250000
v -0.406250 0.625000 0.750000
v -0.156250 0.625000 0.750000
v -0.406250 0.000000 0.750000
v -0.156250 0.000000 0.750000
v -0.156250 0.625000 0.250000
v -0.406250 0.625000 0.250000
v -0.156250 0.000000 0.250000
v -0.406250 0.000000 0.250000
v 0.343750 0.625000 -0.250000
v 0.343750 0.625000 -0.625000
v 0.343750 0.000000 -0.250000
v 0.343750 0.000000 -0.625000
v 0.093750 0.625000 -0.625000
v 0.093750 0.625000 -0.250000
v 0.093750 0.000000 -0.625000
v 0.093750 0.000000 -0.250000
v 0.093750 0.625000 -0.625000
v 0.343750 0.625000 -0.625000
v 0.093750 0.625000 -0.250000
v 0.343750 0.625000 -0.250000
v 0.093750 0.000000 -0.250000
v 0.343750 0.000000 -0.250000
v 0.093750 0.000000 -0.625000
v 0.343750 0.000000 -0.625000
v 0.093750 0.625000 -0.250000
v 0.343750 0.625000 -0.250000
v 0.093750 0.000000 -0.250000
v 0.343750 0.000000 -0.250000
v 0.343750 0.625000 -0.625000
v 0.093750 0.625000 -0.625000
v 0.343750 0.000000 -0.625000
v 0.093750 0.000000 -0.625000
v -0.093750 0.625000 -0.250000
v -0.093750 0.625000 -0.625000
v -0.093750 0.000000 -0.250000
v -0.093750 0.000000 -0.625000
v -0.343750 0.625000 -0.625000
v -0.343750 0.625000 -0.250000
v -0.343750 0.000000 -0.625000
v -0.343750 0.000000 -0.250000
v -0.343750 0.625000 -0.625000
v -0.093750 0.625000 -0.625000
v -0.343750 0.625000 -0.250000
v -0.093750 0.625000 -0.250000
v -0.343750 0.000000 -0.250000
v -0.093750 0.000000 -0.250000
v -0.343750 0.000000 -0.625000
v -0.093750 0.000000 -0.625000
v -0.343750 0.625000 -0.250000
v -0.093750 0.625000 -0.250000
v -0.343750 0.000000 -0.250000
v -0.093750 0.000000 -0.250000
v -0.093750 0.625000 -0.625000
v -0.343750 0.625000 -0.625000
v -0.093750 0.000000 -0.625000
v -0.343750 0.000000 -0.625000
vt 0.000122 0.734619
vt 0.000122 0.781006
vt 0.023315 0.734619
vt 0.023315 0.781006
vt 0.062622 0.734619
vt 0.062622 0.781006
vt 0.085815 0.734619
vt 0.085815 0.781006
vt 0.062378 0.734131
vt 0.062378 0.687744
vt 0.023560 0.734131
vt 0.023560 0.687744
vt 0.101440 0.687744
vt 0.101440 0.734131
vt 0.062622 0.687744
vt 0.062622 0.734131
vt 0.086060 0.734619
vt 0.086060 0.781006
vt 0.124878 0.734619
vt 0.124878 0.781006
vt 0.023560 0.734619
vt 0.023560 0.781006
vt 0.062378 0.734619
vt 0.062378 0.781006
vt 0.000122 0.468994
vt 0.000122 0.687256
vt 0.085815 0.468994
vt 0.085815 0.687256
vt 0.195435 0.468994
vt 0.195435 0.687256
vt 0.281128 0.468994
vt 0.281128 0.687256
vt 0.195190 0.468506
vt 0.195190 0.297119
vt 0.086060 0.468506
vt 0.086060 0.297119
vt 0.304565 0.297119
vt 0.304565 0.468506
vt 0.195435 0.297119
vt 0.195435 0.468506
vt 0.281372 0.468994
vt 0.281372 0.687256
vt 0.390503 0.468994
vt 0.390503 0.687256
vt 0.086060 0.468994
vt 0.086060 0.687256
vt 0.195190 0.468994
vt 0.195190 0.687256
vt 0.304810 0.156494
vt 0.304810 0.343506
vt 0.382690 0.156494
vt 0.382690 0.343506
vt 0.476685 0.156494
vt 0.476685 0.343506
vt 0.554565 0.156494
vt 0.554565 0.343506
vt 0.476440 0.156006
vt 0.476440 0.000244
vt 0.382935 0.156006
vt 0.382935 0.000244
vt 0.570190 0.000244
vt 0.570190 0.156006
vt 0.476685 0.000244
vt 0.476685 0.156006
vt 0.554810 0.156494
vt 0.554810 0.343506
vt 0.648315 0.156494
vt 0.648315 0.343506
vt 0.382935 0.156494
vt 0.382935 0.343506
vt 0.476440 0.156494
vt 0.476440 0.343506
vt 0.000122 0.109619
vt 0.000122 0.218506
vt 0.054565 0.109619
vt 0.054565 0.218506
vt 0.109497 0.109619
vt 0.109497 0.218506
vt 0.163940 0.109619
vt 0.163940 0.218506
vt 0.109253 0.109131
vt 0.109253 0.000244
vt 0.054810 0.109131
vt 0.054810 0.000244
vt 0.163940 0.000244
vt 0.163940 0.109131
vt 0.109497 0.000244
vt 0.109497 0.109131
vt 0.164185 0.109619
vt 0.164185 0.218506
vt 0.218628 0.109619
vt 0.218628 0.218506
vt 0.054810 0.109619
vt 0.054810 0.218506
vt 0.109253 0.109619
vt 0.109253 0.218506
vt 0.203247 0.015869
vt 0.203247 0.046631
vt 0.210815 0.015869
vt 0.210815 0.046631
vt 0.226685 0.015869
vt 0.226685 0.046631
vt 0.234253 0.015869
vt 0.234253 0.046631
vt 0.226440 0.015381
vt 0.226440 0.000244
vt 0.211060 0.015381
vt 0.211060 0.000244
vt 0.242065 0.000244
vt 0.242065 0.015381
vt 0.226685 0.000244
vt 0.226685 0.015381
vt 0.234497 0.015869
vt 0.234497 0.046631
vt 0.249878 0.015869
vt 0.249878 0.046631
vt 0.211060 0.015869
vt 0.211060 0.046631
vt 0.226440 0.015869
vt 0.226440 0.046631
vt 0.234253 0.015869
vt 0.234253 0.046631
vt 0.226685 0.015869
vt 0.226685 0.046631
vt 0.210815 0.015869
vt 0.210815 0.046631
vt 0.203247 0.015869
vt 0.203247 0.046631
vt 0.211060 0.015381
vt 0.211060 0.000244
vt 0.226440 0.015381
vt 0.226440 0.000244
vt 0.226685 0.000244
vt 0.226685 0.015381
vt 0.242065 0.000244
vt 0.242065 0.015381
vt 0.249878 0.015869
vt 0.249878 0.046631
vt 0.234497 0.015869
vt 0.234497 0.046631
vt 0.226440 0.015869
vt 0.226440 0.046631
vt 0.211060 0.015869
vt 0.211060 0.046631
vt 0.390747 0.468994
vt 0.390747 0.624756
vt 0.453003 0.468994
vt 0.453003 0.624756
vt 0.484497 0.468994
vt 0.484497 0.624756
vt 0.546753 0.468994
vt 0.546753 0.624756
vt 0.484253 0.468506
vt 0.484253 0.343994
vt 0.453247 0.468506
vt 0.453247 0.343994
vt 0.515503 0.343994
vt 0.515503 0.468506
vt 0.484497 0.343994
vt 0.484497 0.468506
vt 0.546997 0.468994
vt 0.546997 0.624756
vt 0.578003 0.468994
vt 0.578003 0.624756
vt 0.453247 0.468994
vt 0.453247 0.624756
vt 0.484253 0.468994
vt 0.484253 0.624756
vt 0.390747 0.468994
vt 0.390747 0.624756
vt 0.453003 0.468994
vt 0.453003 0.624756
vt 0.484497 0.468994
vt 0.484497 0.624756
vt 0.546753 0.468994
vt 0.546753 0.624756
vt 0.484253 0.468506
vt 0.484253 0.343994
vt 0.453247 0.468506
vt 0.453247 0.343994
vt 0.515503 0.343994
vt 0.515503 0.468506
vt 0.484497 0.343994
vt 0.484497 0.468506
vt 0.546997 0.468994
vt 0.546997 0.624756
vt 0.578003 0.468994
vt 0.578003 0.624756
vt 0.453247 0.468994
vt 0.453247 0.624756
vt 0.484253 0.468994
vt 0.484253 0.624756
vt 0.390747 0.718994
vt 0.390747 0.874756
vt 0.437378 0.718994
vt 0.437378 0.874756
vt 0.468872 0.718994
vt 0.468872 0.874756
vt 0.515503 0.718994
vt 0.515503 0.874756
vt 0.468628 0.718506
vt 0.468628 0.625244
vt 0.437622 0.718506
vt 0.437622 0.625244
vt 0.499878 0.625244
vt 0.499878 0.718506
vt 0.468872 0.625244
vt 0.468872 0.718506
vt 0.515747 0.718994
vt 0.515747 0.874756
vt 0.546753 0.718994
vt 0.546753 0.874756
vt 0.437622 0.718994
vt 0.437622 0.874756
vt 0.468628 0.718994
vt 0.468628 0.874756
vt 0.390747 0.718994
vt 0.390747 0.874756
vt 0.437378 0.718994
vt 0.437378 0.874756
vt 0.468872 0.718994
vt 0.468872 0.874756
vt 0.515503 0.718994
vt 0.515503 0.874756
vt 0.468628 0.718506
vt 0.468628 0.625244
vt 0.437622 0.718506
vt 0.437622 0.625244
vt 0.499878 0.625244
vt 0.499878 0.718506
vt 0.468872 0.625244
vt 0.468872 0.718506
vt 0.515747 0.718994
vt 0.515747 0.874756
vt 0.546753 0.718994
vt 0.546753 0.874756
vt 0.437622 0.718994
vt 0.437622 0.874756
vt 0.468628 0.718994
vt 0.468628 0.874756
vn 1.0000 0.0000 0.0000
vn -1.0000 0.0000 0.0000
vn 0.0000 1.0000 0.0000
vn 0.0000 -1.0000 0.0000
vn 0.0000 0.0000 1.0000
vn 0.0000 0.0000 -1.0000
s off
f 1/1/1 3/2/1 2/3/1
f 3/2/1 4/4/1 2/3/1
f 5/5/2 7/6/2 6/7/2
f 7/6/2 8/8/2 6/7/2
f 9/9/3 11/10/3 10/11/3
f 11/10/3 12/12/3 10/11/3
f 13/13/4 15/14/4 14/15/4
f 15/14/4 16/16/4 14/15/4
f 17/17/5 19/18/5 18/19/5
f 19/18/5 20/20/5 18/19/5
f 21/21/6 23/22/6 22/23/6
f 23/22/6 24/24/6 22/23/6
f 25/25/1 27/26/1 26/27/1
f 27/26/1 28/28/1 26/27/1
f 29/29/2 31/30/2 30/31/2
f 31/30/2 32/32/2 30/31/2
f 33/33/6 35/34/6 34/35/6
f 35/34/6 36/36/6 34/35/6
f 37/37/5 39/38/5 38/39/5
f 39/38/5 40/40/5 38/39/5
f 41/41/3 43/42/3 42/43/3
f 43/42/3 44/44/3 42/43/3
f 45/45/4 47/46/4 46/47/4
f 47/46/4 48/48/4 46/47/4
f 49/49/1 51/50/1 50/51/1
f 51/50/1 52/52/1 50/51/1
f 53/53/2 55/54/2 54/55/2
f 55/54/2 56/56/2 54/55/2
f 57/57/6 59/58/6 58/59/6
f 59/58/6 60/60/6 58/59/6
f 61/61/5 63/62/5 62/63/5
f 63/62/5 64/64/5 62/63/5
f 65/65/3 67/66/3 66/67/3
f 67/66/3 68/68/3 66/67/3
f 69/69/4 71/70/4 70/71/4
f 71/70/4 72/72/4 70/71/4
f 73/73/1 75/74/1 74/75/1
f 75/74/1 76/76/1 74/75/1
f 77/77/2 79/78/2 78/79/2
f 79/78/2 80/80/2 78/79/2
f 81/81/3 83/82/3 82/83/3
f 83/82/3 84/84/3 82/83/3
f 85/85/4 87/86/4 86/87/4
f 87/86/4 88/88/4 86/87/4
f 89/89/5 91/90/5 90/91/5
f 91/90/5 92/92/5 90/91/5
f 93/93/6 95/94/6 94/95/6
f 95/94/6 96/96/6 94/95/6
f 97/97/1 99/98/1 98/99/1
f 99/98/1 100/100/1 98/99/1
f 101/101/2 103/102/2 102/103/2
f 103/102/2 104/104/2 102/103/2
f 105/105/3 107/106/3 106/107/3
f 107/106/3 108/108/3 106/107/3
f 109/109/4 111/110/4 110/111/4
f 111/110/4 112/112/4 110/111/4
f 113/113/5 115/114/5 114/115/5
f 115/114/5 116/116/5 114/115/5
f 117/117/6 119/118/6 118/119/6
f 119/118/6 120/120/6 118/119/6
f 121/121/1 123/122/1 122/123/1
f 123/122/1 124/124/1 122/123/1
f 125/125/2 127/126/2 126/127/2
f 127/126/2 128/128/2 126/127/2
f 129/129/3 131/130/3 130/131/3
f 131/130/3 132/132/3 130/131/3
f 133/133/4 135/134/4 134/135/4
f 135/134/4 136/136/4 134/135/4
f 137/137/5 139/138/5 138/139/5
f 139/138/5 140/140/5 138/139/5
f 141/141/6 143/142/6 142/143/6
f 143/142/6 144/144/6 142/143/6
f 145/145/1 147/146/1 146/147/1
f 147/146/1 148/148/1 146/147/1
f 149/149/2 151/150/2 150/151/2
f 151/150/2 152/152/2 150/151/2
f 153/153/3 155/154/3 154/155/3
f 155/154/3 156/156/3 154/155/3
f 157/157/4 159/158/4 158/159/4
f 159/158/4 160/160/4 158/159/4
f 161/161/5 163/162/5 162/163/5
f 163/162/5 164/164/5 162/163/5
f 165/165/6 167/166/6 166/167/6
f 167/166/6 168/168/6 166/167/6
f 169/169/1 171/170/1 170/171/1
f 171/170/1 172/172/1 170/171/1
f 173/173/2 175/174/2 174/175/2
f 175/174/2 176/176/2 174/175/2
f 177/177/3 179/178/3 178/179/3
f 179/178/3 180/180/3 178/179/3
f 181/181/4 183/182/4 182/183/4
f 183/182/4 184/184/4 182/183/4
f 185/185/5 187/186/5 186/187/5
f 187/186/5 188/188/5 186/187/5
f 189/189/6 191/190/6 190/191/6
f 191/190/6 192/192/6 190/191/6
f 193/193/1 195/194/1 194/195/1
f 195/194/1 196/196/1 194/195/1
f 197/197/2 199/198/2 198/199/2
f 199/198/2 200/200/2 198/199/2
f 201/201/3 203/202/3 202/203/3
f 203/202/3 204/204/3 202/203/3
f 205/205/4 207/206/4 206/207/4
f 207/206/4 208/208/4 206/207/4
f 209/209/5 211/210/5 210/211/5
f 211/210/5 212/212/5 210/211/5
f 213/213/6 215/214/6 214/215/6
f 215/214/6 216/216/6 214/215/6
f 217/217/1 219/218/1 218/219/1
f 219/218/1 220/220/1 218/219/1
f 221/221/2 223/222/2 222/223/2
f 223/222/2 224/224/2 222/223/2
f 225/225/3 227/226/3 226/227/3
f 227/226/3 228/228/3 226/227/3
f 229/229/4 231/230/4 230/231/4
f 231/230/4 232/232/4 230/231/4
f 233/233/5 235/234/5 234/235/5
f 235/234/5 236/236/5 234/235/5
f 237/237/6 239/238/6 238/239/6
f 239/238/6 240/240/6 238/239/6
